<?xml version="1.0" standalone="no"?>
<!DOCTYPE svg PUBLIC "-//W3C//DTD SVG 20010904//EN"
 "http://www.w3.org/TR/2001/REC-SVG-20010904/DTD/svg10.dtd">
<svg version="1.0" xmlns="http://www.w3.org/2000/svg"
 width="1100.000000pt" height="1100.000000pt" viewBox="0 0 1100.000000 1100.000000"
 preserveAspectRatio="xMidYMid meet">
<metadata>
Created by potrace 1.14, written by Peter Selinger 2001-2017
</metadata>
<g transform="translate(0.000000,1100.000000) scale(0.100000,-0.100000)"
fill="#000000" stroke="none">
<path d="M0 5500 l0 -5500 5500 0 5500 0 0 5500 0 5500 -5500 0 -5500 0 0
-5500z m5380 4629 c380 -37 718 -137 1024 -304 154 -84 188 -105 283 -172 415
-293 741 -682 983 -1168 105 -211 204 -506 334 -1000 15 -55 31 -115 37 -133
6 -18 13 -44 15 -59 3 -14 43 -168 89 -342 177 -670 179 -689 108 -783 -58
-76 -129 -147 -278 -277 -71 -62 -151 -136 -177 -164 -41 -43 -53 -51 -86 -51
l-39 -1 -97 395 c-53 217 -119 490 -146 605 -95 393 -111 460 -160 655 -62
252 -96 364 -109 368 -6 2 -9 7 -6 12 13 21 -140 341 -231 482 -234 363 -590
659 -999 831 -278 117 -575 164 -973 154 -248 -6 -395 -22 -632 -68 -705 -137
-1273 -403 -1641 -769 -63 -63 -128 -131 -145 -150 -160 -191 -334 -499 -404
-719 -80 -253 -114 -570 -91 -846 24 -274 30 -303 201 -1000 54 -220 108 -440
120 -490 52 -218 84 -352 126 -519 44 -178 44 -179 24 -193 -11 -8 -17 -19
-14 -25 5 -8 -1 -9 -17 -4 -13 4 -136 36 -274 71 -335 87 -396 108 -459 159
-28 23 -56 53 -63 67 -6 13 -30 105 -53 204 -23 99 -53 227 -67 285 -97 417
-244 1126 -290 1395 -23 137 -26 611 -5 800 38 344 136 687 273 960 230 456
555 820 979 1098 324 212 622 341 1175 510 77 24 296 75 435 102 479 93 877
120 1250 84z m1547 -2543 c1 -6 10 -47 21 -91 11 -44 43 -174 71 -290 69 -287
148 -609 294 -1205 69 -278 126 -516 127 -530 5 -56 -2 -72 -62 -137 -35 -38
-68 -77 -74 -88 -14 -25 -82 -29 -89 -5 -2 8 -49 197 -103 420 -91 371 -129
525 -213 880 -17 69 -69 280 -115 470 -47 190 -87 356 -88 370 -5 37 27 85
111 164 67 65 78 72 98 63 12 -6 22 -16 22 -21z m-431 -548 c17 -73 66 -274
108 -446 62 -249 76 -321 69 -347 -6 -25 -47 -70 -173 -187 l-166 -153 -259
-63 c-143 -35 -278 -64 -300 -64 -35 0 -165 35 -468 128 -43 13 -84 24 -92 24
-8 0 -12 6 -9 14 3 8 1 17 -5 21 -6 3 -11 10 -11 15 0 5 71 77 157 162 185
180 619 606 887 870 229 226 214 224 262 26z m-4056 -558 c47 -16 92 -29 101
-30 9 0 30 -13 46 -29 27 -26 36 -50 73 -203 23 -95 73 -299 110 -453 125
-508 198 -809 215 -885 9 -41 30 -127 46 -190 59 -239 109 -448 109 -455 0 -3
-4 -4 -9 0 -5 3 -16 -4 -24 -16 -15 -20 -15 -20 -53 -1 -22 10 -67 27 -100 37
-108 31 -97 4 -228 537 -65 260 -178 723 -252 1028 -73 305 -140 578 -147 605
-11 43 -11 52 2 68 9 9 18 17 21 17 3 0 43 -13 90 -30z m1055 -304 c259 -81
502 -157 540 -168 39 -11 133 -40 210 -64 77 -23 179 -54 226 -67 116 -34 128
-40 121 -72 -4 -24 -50 -72 -320 -333 l-94 -90 -269 -67 c-191 -47 -282 -66
-312 -63 -64 7 -405 106 -432 126 -20 14 -32 51 -75 227 -29 116 -67 273 -86
350 -97 396 -98 405 -21 381 23 -8 254 -80 512 -160z m3261 -297 c3 -6 14 -9
24 -6 22 6 32 -15 24 -48 -3 -13 10 -87 30 -167 19 -79 51 -208 70 -288 19
-80 45 -185 57 -235 29 -119 30 -176 4 -205 -11 -13 -92 -88 -180 -168 -88
-80 -180 -165 -205 -188 -25 -23 -72 -67 -105 -96 -107 -96 -309 -282 -352
-323 -34 -33 -41 -45 -36 -67 3 -18 13 -28 32 -33 31 -7 748 -208 841 -235
145 -44 176 -52 195 -55 52 -8 133 -41 156 -64 28 -28 45 -77 29 -83 -6 -2 13
-96 45 -228 57 -229 62 -251 114 -470 44 -185 44 -187 29 -208 -13 -18 -18
-17 -138 19 -937 280 -1710 509 -1792 529 -26 7 -55 10 -63 6 -8 -3 -18 -5
-21 -5 -3 1 -42 -34 -87 -78 -45 -43 -199 -191 -342 -328 -143 -137 -314 -302
-380 -365 -66 -64 -172 -165 -235 -226 -63 -60 -186 -179 -272 -262 -145 -140
-159 -151 -178 -140 -23 15 -24 16 -85 274 -110 465 -150 614 -161 610 -15 -6
-29 61 -16 77 5 7 9 19 9 28 0 22 41 72 76 94 15 9 25 21 21 26 -3 5 -1 8 4 7
5 -2 36 24 69 57 33 33 112 107 174 165 62 58 127 118 144 134 75 73 354 324
388 349 34 26 50 57 27 57 -5 0 -7 7 -4 15 4 8 4 15 1 15 -3 0 -269 72 -592
159 -493 134 -590 163 -609 184 -15 16 -28 52 -39 103 -42 202 -178 740 -190
749 -7 6 -16 18 -20 29 -5 13 -3 17 7 13 9 -4 17 2 21 14 4 10 9 19 13 19 4 0
93 -25 197 -55 105 -31 260 -73 345 -96 85 -22 175 -46 200 -53 25 -8 70 -21
100 -29 30 -9 125 -36 210 -61 85 -25 268 -77 405 -116 138 -39 301 -87 364
-106 72 -21 122 -32 135 -27 12 4 26 6 31 5 6 -1 74 58 151 131 77 72 201 188
274 257 74 69 173 161 220 206 458 432 845 793 852 793 4 1 10 -4 14 -10z
m963 -2284 c22 -8 41 -12 41 -9 0 2 13 -2 29 -10 16 -9 44 -18 62 -21 19 -3
44 -17 56 -30 12 -14 26 -25 31 -25 13 0 24 -62 13 -69 -8 -6 13 -107 90 -421
58 -241 99 -420 99 -435 0 -43 -11 -47 -91 -31 -41 9 -90 18 -109 21 -57 9
-84 41 -104 125 -10 41 -63 255 -117 476 -54 220 -99 404 -99 408 0 4 4 4 10
1 5 -3 15 3 22 15 15 24 15 24 67 5z m574 -178 c-4 -6 0 -8 10 -4 9 3 17 2 19
-3 2 -5 17 -10 33 -12 17 -2 32 -6 35 -9 11 -12 180 -50 191 -43 8 5 9 3 4 -5
-5 -9 -1 -12 11 -10 11 1 33 -4 49 -11 42 -17 138 -39 147 -34 5 3 8 1 8 -4 0
-5 30 -17 68 -27 37 -10 72 -20 77 -24 6 -3 16 -6 23 -7 29 -5 88 -53 104 -85
9 -19 28 -86 43 -149 14 -63 29 -122 32 -130 3 -8 7 -24 9 -35 1 -11 23 -104
48 -207 79 -322 74 -362 -41 -374 -56 -6 -84 -1 -320 65 -142 40 -276 78 -298
84 -50 14 -91 55 -100 99 -12 59 -55 236 -136 565 -43 178 -79 325 -79 327 0
2 9 6 20 9 11 3 20 12 20 19 0 8 7 15 15 15 8 0 11 -5 8 -10z m-4758 -841 c9
4 22 -34 45 -133 55 -238 101 -431 150 -628 41 -168 45 -192 33 -207 -8 -9
-12 -21 -9 -27 4 -5 1 -14 -6 -20 -17 -14 -129 -103 -149 -119 -11 -8 -24 -10
-40 -3 -19 7 -27 21 -37 67 -18 80 -85 358 -142 594 -32 134 -51 195 -61 195
-18 0 -31 66 -16 83 6 7 11 23 12 35 0 14 33 53 85 104 76 73 86 80 103 68 11
-8 25 -11 32 -9z m-359 -798 c45 -188 96 -397 112 -463 24 -93 28 -123 19
-134 -7 -8 -11 -21 -10 -30 2 -9 -14 -29 -35 -44 -20 -16 -98 -86 -172 -156
-184 -173 -253 -236 -281 -254 -59 -38 -149 -14 -168 45 -20 63 -161 644 -167
690 -4 27 -11 46 -18 45 -13 -2 -10 29 9 99 16 57 46 88 473 492 l84 79 36
-13 37 -12 81 -344z"/>
</g>
</svg>
